<svg xmlns="http://www.w3.org/2000/svg" width="104.105" height="104.124" viewBox="0 0 104.105 104.124">
    <defs>
        <style>
            .cls-1{fill:#ffedee}.cls-2{fill:#ff4d54}
        </style>
    </defs>
    <g id="Group_18618" data-name="Group 18618" transform="translate(-137 -266)">
        <g id="Group_14892" data-name="Group 14892" transform="translate(137 266)">
            <g id="Group_6975" data-name="Group 6975">
                <path id="Path_6774" d="M187.573 89.283a53.541 53.541 0 0 1 22.211 3.817 52.979 52.979 0 0 1 16.71 10.995 52.076 52.076 0 0 1-13.4 83.94 57.029 57.029 0 0 1-10.081 3.726 53.442 53.442 0 0 1-13.661 1.581 54.507 54.507 0 0 1-12.179-1.593 52.076 52.076 0 0 1-32.753-75.359 51.686 51.686 0 0 1 11.609-14.383 53.667 53.667 0 0 1 13.964-8.723 51.868 51.868 0 0 1 13.469-3.574 79.824 79.824 0 0 1 4.111-.426" class="cls-1" data-name="Path 6774" transform="translate(-138.065 -89.232)"/>
            </g>
        </g>
        <g id="Group_18617" data-name="Group 18617" transform="translate(163.56 287.731)">
            <g id="alert-circle" transform="translate(9.659 26.559)">
                <path id="Path_18380" d="M3168.71 1549.089a12.073 12.073 0 1 1 12.073-12.073 12.087 12.087 0 0 1-12.073 12.073zm0-21.731a9.658 9.658 0 1 0 9.658 9.658 9.67 9.67 0 0 0-9.658-9.658z" class="cls-2" data-name="Path 18380" transform="translate(-3156.637 -1524.944)"/>
                <path id="Path_18381" d="M3166.845 1537.187a1.208 1.208 0 0 1-1.207-1.207v-4.829a1.207 1.207 0 1 1 2.414 0v4.829a1.207 1.207 0 0 1-1.207 1.207z" class="cls-2" data-name="Path 18381" transform="translate(-3154.772 -1523.907)"/>
                <path id="Path_18382" d="M3166.847 1540.355a1.291 1.291 0 0 1-.471-.085 1.465 1.465 0 0 1-.386-.266 1.2 1.2 0 0 1-.35-.857 1.216 1.216 0 0 1 .35-.857 1.2 1.2 0 0 1 .386-.254 1.254 1.254 0 0 1 1.328.254 1.207 1.207 0 0 1-.858 2.064z" class="cls-2" data-name="Path 18382" transform="translate(-3154.772 -1522.249)"/>
            </g>
            <g id="Group_14891" data-name="Group 14891">
                <g id="Screen_Shot_2019-10-05_at_8" data-name="Screen Shot 2019-10-05 at 8">
                    <g id="_3674b2ff" data-name="3674b2ff" transform="translate(7.657)">
                        <path id="Path_14567" d="M3183.566 1502.945a5.54 5.54 0 0 1 1.013.134 24.45 24.45 0 0 1 2.633.672 2.856 2.856 0 0 1-.335 1.618 7.817 7.817 0 0 1-2.888 2.324c-.473.264-.907.69-1.489.646a19.757 19.757 0 0 1 .362-2.066c.251-1.107.447-2.225.704-3.328z" class="cls-2" data-name="Path 14567" transform="translate(-3149.274 -1502.945)"/>
                        <path id="Path_14568" d="M3155.675 1507.226a2.456 2.456 0 0 1 1.635-.463q5.15.006 10.3 0a2.073 2.073 0 0 1 2.079 1.593c.038.387.163.916-.241 1.156a19.592 19.592 0 0 1-2.073 1.178 25.92 25.92 0 0 1-.011-1.552h-10.107v8.645c-.755 0-1.509-.012-2.264 0-.016-2.939 0-5.879-.009-8.813a2.176 2.176 0 0 1 .691-1.744z" class="cls-2" data-name="Path 14568" transform="translate(-3154.979 -1502.155)"/>
                        <path id="Path_14569" d="M3174.459 1507.456a3.232 3.232 0 0 1 1.827-.6 2.108 2.108 0 0 1 1.5 1.136c1.683 2.866 3.351 5.742 5.034 8.609a4.962 4.962 0 0 1 .588 1.177c-.713.027-1.429.024-2.143.013-.32.036-.492-.279-.654-.5-1.6-2.679-3.115-5.409-4.746-8.068-1.69.925-3.349 1.889-5.019 2.842-2.294 1.264-4.545 2.584-6.826 3.863.377.639.814 1.239 1.222 1.857-.8.016-1.6.025-2.392.006-.2.016-.322-.15-.448-.273a2.255 2.255 0 0 1-.694-1.739 2.1 2.1 0 0 1 1.072-1.69z" class="cls-2" data-name="Path 14569" transform="translate(-3153.585 -1502.133)"/>
                        <path id="Path_14570" d="M3184.046 1508.812c.768-.413 1.52-.861 2.317-1.219a3.615 3.615 0 0 1-.168 1.52 3.255 3.255 0 0 1-1.207 1.284 25.338 25.338 0 0 1-3.169 1.8 4.422 4.422 0 0 1 .414-1.95 5.093 5.093 0 0 1 1.813-1.435z" class="cls-2" data-name="Path 14570" transform="translate(-3149.416 -1501.981)"/>
                        <path id="Path_14571" d="M3182.16 1513.624a9.2 9.2 0 0 1 3.583-2 3.213 3.213 0 0 1-.941 2.585c-1.107 1.027-2.638 1.449-3.723 2.511a4.429 4.429 0 0 1 1.081-3.096z" class="cls-2" data-name="Path 14571" transform="translate(-3149.571 -1501.146)"/>
                    </g>
                    <g id="_303e4eff" data-name="303e4eff" transform="translate(0 18.473)">
                        <path id="Path_14573" d="M3153.615 1518.254q19.787-.013 39.574 0a5.715 5.715 0 0 1 2.9.619 3.058 3.058 0 0 1 1.328 1.716 10.638 10.638 0 0 1 .3 1.932c.742 8.051 1.449 16.11 2.2 24.16.187 2.094.348 4.187.568 6.278a12.708 12.708 0 0 1 0 1.957 3.611 3.611 0 0 1-2.052 2.543 15.6 15.6 0 0 1-1.523.5c-2.638.75-5.26 1.557-7.9 2.3a2.839 2.839 0 0 1-1.262.05c-1.188-.092-2.384-.01-3.572-.121-.828-.034-1.66-.027-2.49-.061-1.464-.1-2.937-.051-4.4-.154-1.855-.024-3.709-.132-5.564-.155-1.439-.147-2.9-.011-4.329-.176-1.048-.045-2.1.025-3.145-.1-1.011-.039-2.025-.028-3.035-.058-1.043-.121-2.1-.065-3.139-.111-1.26-.112-2.528-.047-3.789-.144-.9-.035-1.811-.042-2.713-.064a3 3 0 0 1-2.3-1.206 3.52 3.52 0 0 1-.641-1.972c.28-2.134.533-4.272.845-6.4 1.362-10.448 2.777-20.886 4.133-31.338m2.181 2.372c-.058.67-.17 1.328-.248 2-.42 2.924-.754 5.861-1.174 8.787-.467 3.714-.993 7.419-1.454 11.135-.363 2.381-.6 4.78-.958 7.164-.3 2.127-.525 4.268-.855 6.39a.7.7 0 0 0 .634.565c.887.064 1.78.008 2.666.1 1.009.054 2.023 0 3.03.121 1.086.05 2.173-.016 3.25.111 1.154.068 2.316-.024 3.464.121 1.01.047 2.024-.007 3.032.106 1.916.022 3.83.144 5.748.162 1.225.1 2.458.047 3.683.142 1.047.051 2.1.021 3.139.11 1.135.058 2.276 0 3.407.121.633.024 1.266.017 1.9.031.6 0 1.207.11 1.811.1q.018-18.633.007-37.264-15.547.009-31.09 0m33.191 0q.016 18.565.007 37.131c2.329-.643 4.642-1.34 6.966-2a11.837 11.837 0 0 0 1.4-.431 1.206 1.206 0 0 0 .752-1.157c-.287-2.836-.54-5.674-.779-8.516-.483-4.992-.891-9.994-1.376-14.986-.241-2.75-.467-5.5-.748-8.244a2.372 2.372 0 0 0-.291-1.414 2.432 2.432 0 0 0-1.3-.374c-1.54-.018-3.087-.007-4.635-.016z" class="cls-2" data-name="Path 14573" transform="translate(-3148.637 -1518.246)"/>
                    </g>
                </g>
            </g>
        </g>
    </g>
</svg>
